#!OML:ASF F:\VICON\USERDATA\INSTALL\rory3\rory3.ASF
:FULLY-SPECIFIED
:DEGREES
305
root 4.92197 17.2044 2.50062 13.7829 -18.1067 -3.64226
lowerback -0.438193 1.21058 1.26955
upperback -4.02962 1.64689 0.455634
thorax -3.87675 0.783328 -0.289529
lowerneck -10.1936 1.04394 -0.580419
upperneck 38.317 1.35661 0.296442
head 15.0303 0.438288 0.410444
rclavicle -1.80894e-014 -1.49089e-014
rhumerus 27.4407 7.20615 -35.0309
rradius 108.853
rwrist -46.5756
rhand -4.55261 -44.3882
rfingers 7.12502
rthumb 21.2232 -73.2464
lclavicle -1.80894e-014 -1.49089e-014
lhumerus 42.8361 7.50696 28.2181
lradius 77.0044
lwrist 62.1907
lhand -26.9391 -26.4442
lfingers 7.12502
lthumb -0.36129 3.53526
rfemur -51.4837 -6.74978 11.1836
rtibia 37.4734
rfoot 29.6393 -10.0459
rtoes -0.819024
lfemur -29.4246 3.31337 -27.5442
ltibia 33.2388
lfoot -15.5869 9.51894
ltoes 10.9505
306
root 4.92382 17.1987 2.49212 13.6179 -17.9465 -3.44867
lowerback -0.211128 1.16926 1.09817
upperback -3.99603 1.59079 0.407347
thorax -3.97412 0.759896 -0.24656
lowerneck -10.2426 0.955217 -0.624223
upperneck 38.4015 1.25562 0.241703
head 15.0846 0.38072 0.380645
rclavicle 1.51698e-014 -3.18055e-015
rhumerus 27.2763 7.33087 -35.4467
rradius 108.994
rwrist -46.0172
rhand -3.52793 -44.0454
rfingers 7.12502
rthumb 22.2072 -72.7897
lclavicle 1.51698e-014 -3.18055e-015
lhumerus 42.7195 7.03867 28.7294
lradius 77.3027
lwrist 62.2426
lhand -27.448 -28.7936
lfingers 7.12502
lthumb -0.852791 1.18442
rfemur -51.7107 -6.6675 11.2806
rtibia 37.2659
rfoot 30.1433 -8.18531
rtoes -5.02779
lfemur -29.3977 3.33182 -27.7412
ltibia 33.3331
lfoot -15.5891 9.29744
ltoes 10.8109
307
root 4.92449 17.1997 2.48941 13.4483 -17.8605 -3.1223
lowerback -0.110042 1.1238 0.788043
upperback -4.02797 1.52305 0.341925
thorax -4.07129 0.735011 -0.140962
lowerneck -9.99155 0.920459 -0.84254
upperneck 38.2976 1.18751 0.425351
head 14.9709 0.345985 0.484097
rclavicle -3.10353e-014 -1.68967e-014
rhumerus 26.9535 7.85782 -35.6398
rradius 108.982
rwrist -46.1429
rhand -4.63139 -43.8804
rfingers 7.12502
rthumb 21.1475 -72.747
lclavicle -3.10353e-014 -1.68967e-014
lhumerus 42.4351 6.45998 29.1602
lradius 77.6464
lwrist 62.5039
lhand -28.0968 -30.8619
lfingers 7.12502
lthumb -1.47941 -0.887285
rfemur -51.9554 -6.58821 11.2596
rtibia 37.1001
rfoot 31.395 -6.11532
rtoes -5.87322
lfemur -29.3963 3.31814 -28.0485
ltibia 33.3802
lfoot -15.6461 8.92704
ltoes 12.4349
308
root 4.92644 17.202 2.48934 13.3154 -17.6895 -3.01681
lowerback -0.193416 1.02741 0.791402
upperback -3.93164 1.39225 0.331696
thorax -3.92441 0.67041 -0.146204
lowerneck -9.70284 0.964677 -1.19357
upperneck 38.1219 1.22756 0.724745
head 14.8107 0.354274 0.674425
rclavicle 6.53505e-015 -2.0276e-014
rhumerus 27.0947 8.42977 -36.0642
rradius 108.663
rwrist -45.9728
rhand -5.08501 -43.9231
rfingers 7.12502
rthumb 20.7117 -72.8378
lclavicle 6.53505e-015 -2.0276e-014
lhumerus 42.1319 6.13092 29.5652
lradius 78.0001
lwrist 62.7744
lhand -28.05 -30.8602
lfingers 7.12502
lthumb -1.43418 -0.885292
rfemur -52.0511 -6.51037 11.4245
rtibia 36.868
rfoot 31.2466 -5.38911
rtoes -7.13919
lfemur -29.3787 3.35994 -28.1319
ltibia 33.4646
lfoot -15.6754 8.54334
ltoes 15.6786
309
root 4.92289 17.1852 2.48617 13.1969 -17.4467 -3.00164
lowerback -0.228964 0.948411 0.868157
upperback -3.76831 1.2865 0.320624
thorax -3.73347 0.616361 -0.194834
lowerneck -9.648 0.969386 -1.30562
upperneck 38.1138 1.2545 0.747051
head 14.7925 0.352767 0.707227
rclavicle 2.5929e-014 6.75868e-015
rhumerus 27.7746 9.05159 -36.8235
rradius 107.73
rwrist -45.3226
rhand -4.78646 -43.5945
rfingers 7.12502
rthumb 20.9986 -72.4778
lclavicle 2.5929e-014 6.75868e-015
lhumerus 42.0779 5.88514 30.0849
lradius 78.3772
lwrist 62.9117
lhand -27.7672 -26.0558
lfingers 7.12502
lthumb -1.16106 3.92083
rfemur -52.1454 -6.33962 11.6041
rtibia 36.6527
rfoot 30.3739 -5.60049
rtoes -8.14069
lfemur -29.2325 3.55432 -28.2084
ltibia 33.578
lfoot -15.6569 8.47483
ltoes 12.2667
310
root 4.92376 17.1958 2.47216 13.0812 -17.3138 -2.85027
lowerback -0.079009 0.939864 0.681587
upperback -3.70141 1.27126 0.261512
thorax -3.75152 0.613951 -0.152862
lowerneck -9.82347 0.913278 -1.05146
upperneck 38.3343 1.22366 0.439705
head 14.9475 0.332693 0.531902
rclavicle 2.98177e-016 9.14409e-015
rhumerus 27.4339 9.00463 -36.962
rradius 107.88
rwrist -45.5233
rhand -4.39642 -42.9077
rfingers 7.12502
rthumb 21.3732 -71.7489
lclavicle 2.98177e-016 9.14409e-015
lhumerus 42.0251 5.39351 30.5025
lradius 78.6937
lwrist 63.1782
lhand -27.6868 -23.1779
lfingers 7.12502
lthumb -1.08346 6.79911
rfemur -52.2769 -6.05471 11.6693
rtibia 36.3655
rfoot 30.9301 -4.59234
rtoes -7.0536
lfemur -29.4662 3.38803 -28.2156
ltibia 33.7486
lfoot -15.7992 7.86144
ltoes 15.5543
311
root 4.91829 17.1943 2.45549 13.0242 -17.2892 -2.82045
lowerback 0.0882273 0.972391 0.519821
upperback -3.63189 1.31228 0.242015
thorax -3.7768 0.63945 -0.0861359
lowerneck -10.0128 0.82274 -0.917154
upperneck 38.4222 1.09724 0.330579
head 15.0388 0.282958 0.444902
rclavicle -4.34344e-014 -4.96962e-015
rhumerus 27.0666 8.98316 -37.1355
rradius 107.996
rwrist -45.6713
rhand -4.24526 -42.6101
rfingers 7.12502
rthumb 21.5184 -71.4348
lclavicle -4.34344e-014 -4.96962e-015
lhumerus 41.9326 4.80415 30.8397
lradius 78.7804
lwrist 63.5125
lhand -27.665 -24.9283
lfingers 7.12502
lthumb -1.06234 5.04876
rfemur -52.5658 -5.54156 11.8084
rtibia 36.1805
rfoot 31.3374 -3.67045
rtoes -7.37619
lfemur -29.6558 3.44264 -28.182
ltibia 33.8759
lfoot -15.7597 7.67893
ltoes 16.8327
312
root 4.91266 17.1928 2.44345 13.0322 -17.2186 -2.95508
lowerback 0.15575 0.984216 0.520462
upperback -3.5051 1.32985 0.287859
thorax -3.68448 0.649626 -0.039857
lowerneck -10.3496 0.776274 -0.835895
upperneck 38.5154 1.04177 0.253732
head 15.1662 0.260282 0.392248
rclavicle 4.30617e-014 8.94531e-015
rhumerus 26.9255 9.03661 -37.4445
rradius 107.951
rwrist -45.53
rhand -4.06457 -42.5105
rfingers 7.12502
rthumb 21.692 -71.3153
lclavicle 4.30617e-014 8.94531e-015
lhumerus 41.88 4.36606 31.2546
lradius 78.8822
lwrist 63.5777
lhand -27.6771 -26.4678
lfingers 7.12502
lthumb -1.07401 3.50927
rfemur -52.8113 -4.97694 12.0296
rtibia 36.0683
rfoot 31.5503 -3.92345
rtoes -6.06372
lfemur -29.7107 3.55388 -28.0329
ltibia 33.9178
lfoot -15.7049 7.61837
ltoes 16.6684
313
root 4.90974 17.1901 2.44003 13.0577 -17.0785 -2.91532
lowerback 0.018668 0.935125 0.428994
upperback -3.36377 1.26111 0.300518
thorax -3.46295 0.619237 0.0305454
lowerneck -11.0209 0.829534 -0.494295
upperneck 38.9581 1.19172 -0.142303
head 15.5553 0.315181 0.191447
rclavicle -1.41386e-014 -1.0138e-014
rhumerus 26.9042 9.32505 -37.8439
rradius 107.753
rwrist -45.2104
rhand -4.04903 -42.0477
rfingers 7.12502
rthumb 21.7069 -70.8507
lclavicle -1.41386e-014 -1.0138e-014
lhumerus 41.7834 4.12783 31.6738
lradius 79.2232
lwrist 63.6713
lhand -27.8701 -25.3981
lfingers 7.12502
lthumb -1.26048 4.57788
rfemur -53.1582 -4.76823 12.2095
rtibia 36.1352
rfoot 31.5858 -4.32979
rtoes -4.24761
lfemur -29.6374 3.60592 -28.1224
ltibia 33.7965
lfoot -15.5907 7.61197
ltoes 15.17
314
root 4.90959 17.1788 2.44294 12.9343 -16.8933 -2.54252
lowerback 0.0260806 0.952179 0.0667982
upperback -2.83166 1.2719 0.113753
thorax -2.92058 0.633492 0.0466857
lowerneck -13.1328 0.776684 0.108617
upperneck 39.5286 1.11885 -0.536869
head 16.3793 0.315165 -0.0894369
rclavicle 1.82882e-014 -2.5842e-015
rhumerus 27.067 8.81848 -38.0954
rradius 107.502
rwrist -44.974
rhand -4.37638 -41.4481
rfingers 7.12502
rthumb 21.3925 -70.2871
lclavicle 1.82882e-014 -2.5842e-015
lhumerus 42.5221 4.2525 32.0811
lradius 79.2864
lwrist 63.648
lhand -27.9327 -25.4717
lfingers 7.12502
lthumb -1.32088 4.50392
rfemur -53.5326 -4.99025 12.2574
rtibia 36.2892
rfoot 31.6572 -4.09941
rtoes -3.77447
lfemur -29.3518 3.6177 -28.6035
ltibia 33.5598
lfoot -15.5381 7.72657
ltoes 12.2813
315
root 4.918 17.1752 2.45013 12.7294 -16.5791 -2.2093
lowerback -0.140082 0.751022 -0.00576681
upperback -2.87231 1.00034 0.0639624
thorax -2.86891 0.498897 0.045284
lowerneck -12.3184 0.827926 -0.0911197
upperneck 39.3787 1.26224 -0.574788
head 16.0974 0.340424 -0.0494282
rclavicle 2.22639e-014 1.78906e-014
rhumerus 26.9854 9.65958 -38.3659
rradius 107.29
rwrist -44.7563
rhand -4.83221 -40.9172
rfingers 7.12502
rthumb 20.9546 -69.8053
lclavicle 2.22639e-014 1.78906e-014
lhumerus 41.9103 3.51423 32.306
lradius 79.2796
lwrist 63.4086
lhand -27.7822 -26.6575
lfingers 7.12502
lthumb -1.17557 3.31902
rfemur -53.7412 -5.46401 12.4294
rtibia 36.466
rfoot 31.843 -3.16279
rtoes -4.40492
lfemur -28.9375 3.50179 -29.0202
ltibia 33.306
lfoot -15.5557 7.72044
ltoes 10.9446
316
root 4.92789 17.1801 2.45624 12.6748 -16.3148 -2.19206
lowerback -0.303478 0.660287 0.191963
upperback -2.80081 0.880796 0.0333613
thorax -2.69948 0.434208 -0.0913208
lowerneck -11.8951 0.732922 -0.344979
upperneck 39.1803 1.13839 -0.454505
head 15.8862 0.269381 0.0261433
rclavicle -4.5969e-015 2.98177e-015
rhumerus 27.376 10.2409 -38.8572
rradius 106.601
rwrist -44.1776
rhand -5.17718 -40.5917
rfingers 7.12502
rthumb 20.6232 -69.5161
lclavicle -4.5969e-015 2.98177e-015
lhumerus 41.6888 3.02178 32.736
lradius 79.4803
lwrist 63.3913
lhand -28.2075 -26.0755
lfingers 7.12502
lthumb -1.58633 3.89838
rfemur -53.8656 -5.71758 12.8543
rtibia 36.4783
rfoot 31.8887 -3.10874
rtoes -4.09538
lfemur -28.7799 3.42308 -29.0775
ltibia 33.2423
lfoot -15.5203 7.58431
ltoes 11.1603
317
root 4.92564 17.1802 2.44894 12.7592 -16.2267 -2.31496
lowerback -0.344569 0.661741 0.243836
upperback -2.72154 0.883936 0.0630841
thorax -2.59433 0.435258 -0.0888031
lowerneck -11.8168 0.639534 -0.558682
upperneck 39.0557 0.986542 -0.271926
head 15.7994 0.200619 0.118352
rclavicle 2.1593e-014 -7.35503e-015
rhumerus 27.8709 10.594 -39.3301
rradius 105.844
rwrist -43.5327
rhand -5.17784 -40.6699
rfingers 7.12502
rthumb 20.6225 -69.5944
lclavicle 2.1593e-014 -7.35503e-015
lhumerus 41.6173 2.57689 33.1425
lradius 79.6978
lwrist 63.4406
lhand -28.7556 -25.6628
lfingers 7.12502
lthumb -2.11566 4.30643
rfemur -54.0611 -5.35685 13.1905
rtibia 36.376
rfoot 31.7441 -4.78174
rtoes -1.07897
lfemur -28.9629 3.52902 -28.9529
ltibia 33.3859
lfoot -15.4778 7.48642
ltoes 11.0721
